<svg width="100%" height="100%" viewBox="0 0 321 230" version="1.1" xmlns="http://www.w3.org/2000/svg" xmlns:xlink="http://www.w3.org/1999/xlink" xml:space="preserve" style="fill-rule:evenodd;clip-rule:evenodd;stroke-linejoin:round;stroke-miterlimit:1.41421;">
    <g id="MacBookPro">
        <path id="Monitor" d="M43.492,0.054C43.492,0.054 33.882,-0.78 33.99,9.755C34.098,20.291 36.873,168.94 36.873,168.94C36.873,168.94 36.413,174.74 40.46,174.657C43.484,174.595 284.414,174.657 284.414,174.657C284.414,174.657 287.802,174.446 287.636,166.691C287.471,158.926 290.232,7.403 290.232,7.403C290.232,7.403 289.322,0.176 284.414,0.054C279.507,-0.068 43.492,0.054 43.492,0.054Z" style="fill:#000;"/>
        <clipPath id="_clip1">
            <path d="M43.492,0.054C43.492,0.054 33.882,-0.78 33.99,9.755C34.098,20.291 36.873,168.94 36.873,168.94C36.873,168.94 36.413,174.74 40.46,174.657C43.484,174.595 284.414,174.657 284.414,174.657C284.414,174.657 287.802,174.446 287.636,166.691C287.471,158.926 290.232,7.403 290.232,7.403C290.232,7.403 289.322,0.176 284.414,0.054C279.507,-0.068 43.492,0.054 43.492,0.054Z"/>
        </clipPath>
        <g clip-path="url(#_clip1)">
            <path id="Screen" d="M41.327,12.352L44.374,161.76L280.211,162.496L282.775,12.352L41.327,12.352Z" style="fill:#292929;"/>
        </g>
        <path id="Base" d="M0.148,221.598C0.133,220.574 0.83,219.636 0.83,219.636L33.989,175.534C35.497,173.386 39.911,173.514 39.911,173.514C39.911,173.514 279.422,173.479 284.325,173.514C289.228,173.549 290.232,175.939 290.232,175.939C290.232,175.939 315.123,211.433 319.185,217.682C320.328,219.442 320.103,221.711 320.1,222.9C319.997,228.085 317.079,229.881 317.079,229.881C317.079,229.881 6.437,229.948 3.992,229.881C1.546,229.814 0.988,228.339 0.348,226.959C-0.293,225.578 0.148,221.598 0.148,221.598L0.148,221.598Z" style="fill:#999999;"/>
        <clipPath id="_clip2">
            <path d="M0.148,221.598C0.133,220.574 0.83,219.636 0.83,219.636L33.989,175.534C35.497,173.386 39.911,173.514 39.911,173.514C39.911,173.514 279.422,173.479 284.325,173.514C289.228,173.549 290.232,175.939 290.232,175.939C290.232,175.939 315.123,211.433 319.185,217.682C320.328,219.442 320.103,221.711 320.1,222.9C319.997,228.085 317.079,229.881 317.079,229.881C317.079,229.881 6.437,229.948 3.992,229.881C1.546,229.814 0.988,228.339 0.348,226.959C-0.293,225.578 0.148,221.598 0.148,221.598L0.148,221.598Z"/>
        </clipPath>
        <g clip-path="url(#_clip2)">
            <g id="Keyboard">
                <path id="keyboard-space" d="M224.966,198.091L96.562,198.091L98.348,193.116L223.477,193.096L224.966,198.091Z" style="fill:#000000;fill-opacity:0.9;"/>
                <path id="keyboard-fn" d="M49.783,193.124L46.783,198.091L31.419,198.091L34.773,193.126L49.783,193.124Z" style="fill:#000000;fill-opacity:0.9;"/>
                <path id="keyboard-ctrl" d="M62.925,198.091L48.992,198.091L51.992,193.123L65.545,193.121L62.925,198.091Z" style="fill:#000000;fill-opacity:0.9;"/>
                <path id="keyboard-loption" d="M79.355,198.091L65.062,198.091L67.682,193.121L81.501,193.119L79.355,198.091Z" style="fill:#000000;fill-opacity:0.9;"/>
                <path id="keyboard-lcommand" d="M94.553,198.091L81.415,198.091L83.561,193.118L96.339,193.116L94.553,198.091Z" style="fill:#000000;fill-opacity:0.9;"/>
                <path id="keyboard-rcommand" d="M240.382,198.091L226.894,198.091L225.405,193.096L238.396,193.094L240.382,198.091Z" style="fill:#000000;fill-opacity:0.9;"/>
                <path id="keyboard-roption" d="M257.421,198.091L242.417,198.091L240.43,193.094L255.071,193.091L257.421,198.091Z" style="fill:#000000;fill-opacity:0.9;"/>
                <path id="keyboardl-left" d="M268.544,198.091L259.51,198.091L257.16,193.091L265.902,193.09L268.544,198.091Z" style="fill:#000000;fill-opacity:0.9;"/>
                <path id="keyboard-down" d="M269.577,195.999L278.619,195.999L279.874,198.091L270.683,198.091L269.577,195.999Z" style="fill:#000000;fill-opacity:0.9;"/>
                <path id="keyboard-right" d="M290.931,198.091L282.079,198.091L279.076,193.088L287.821,193.086L290.931,198.091Z" style="fill:#000000;fill-opacity:0.9;"/>
                <path id="keyboard-up" d="M278.126,195.178L269.144,195.178L268.04,193.089L276.871,193.088L278.126,195.178Z" style="fill:#000000;fill-opacity:0.9;"/>
                <path id="keyboard-tab" d="M63.683,176.58L61.57,180.094L43.584,180.097L45.982,176.547L63.683,176.58Z" style="fill:#000000;fill-opacity:0.9;"/>
                <path id="keyboard-q" d="M80.107,176.61L78.385,180.091L63.505,180.094L65.615,176.584L80.107,176.61Z" style="fill:#000000;fill-opacity:0.9;"/>
                <path id="keyboard-w" d="M96.547,176.641L95.215,180.089L80.235,180.091L81.955,176.614L96.547,176.641Z" style="fill:#000000;fill-opacity:0.9;"/>
                <path id="keyboard-e" class="press1 press2 press3" d="M113.062,176.672L112.104,180.086L96.992,180.088L98.323,176.644L113.062,176.672Z" style="fill:#000000;fill-opacity:0.9;"/>
                <path id="keyboard-r" d="M129.595,176.702L128.926,180.083L113.826,180.086L114.783,176.675L129.595,176.702Z" style="fill:#000000;fill-opacity:0.9;"/>
                <path id="keyboard-t" d="M146.059,176.733L145.772,180.081L130.616,180.083L131.285,176.705L146.059,176.733Z" style="fill:#000000;fill-opacity:0.9;"/>
                <path id="keyboard-y" d="M162.439,176.763L162.537,180.078L147.436,180.08L147.723,176.736L162.439,176.763Z" style="fill:#000000;fill-opacity:0.9;"/>
                <path id="keyboard-u" d="M179.014,176.794L179.402,180.075L164.196,180.078L164.097,176.766L179.014,176.794Z" style="fill:#000000;fill-opacity:0.9;"/>
                <path id="keyboard-i" d="M195.578,176.825L196.339,180.073L181.071,180.075L180.684,176.797L195.578,176.825Z" style="fill:#000000;fill-opacity:0.9;"/>
                <path id="keyboard-o" d="M212.067,176.855L213.149,180.07L198.042,180.072L197.282,176.828L212.067,176.855Z" style="fill:#000000;fill-opacity:0.9;"/>
                <path id="keyboard-p" d="M228.458,176.886L229.87,180.067L214.898,180.07L213.817,176.858L228.458,176.886Z" style="fill:#000000;fill-opacity:0.9;"/>
                <path id="keyboard-openbracket" d="M244.897,176.916L246.608,180.065L231.683,180.067L230.273,176.889L244.897,176.916Z" style="fill:#000000;fill-opacity:0.9;"/>
                <path id="keyboard-closebracket" d="M261.375,176.947L263.068,180.062L248.495,180.064L246.786,176.92L261.375,176.947Z" style="fill:#000000;fill-opacity:0.9;"/>
                <path id="keyboard-lshift" d="M 70.397 186.819 L 66.556 191.545 L 35.839 191.547 L 39.032 186.822 L 70.397 186.819 Z" style="fill:#000000;fill-opacity:0.9;"/>
                <path id="keyboard-z" d="M87.088,191.539L69.923,191.541L72.261,186.816L88.914,186.813L87.088,191.539Z" style="fill:#000000;fill-opacity:0.9;"/>
                <path id="keyboard-x" d="M106.43,191.535L89.115,191.538L90.941,186.813L107.756,186.81L106.43,191.535Z" style="fill:#000000;fill-opacity:0.9;"/>
                <path id="keyboard-c" d="M125.677,191.532L108.394,191.535L109.72,186.81L126.612,186.807L125.677,191.532Z" style="fill:#000000;fill-opacity:0.9;"/>
                <path id="keyboard-v" d="M144.973,191.529L127.604,191.532L128.539,186.807L145.379,186.804L144.973,191.529Z" style="fill:#000000;fill-opacity:0.9;"/>
                <path id="keyboard-b" d="M164.181,191.526L146.871,191.529L147.277,186.804L164.04,186.801L164.181,191.526Z" style="fill:#000000;fill-opacity:0.9;"/>
                <path id="keyboard-n" d="M183.48,191.523L166.072,191.526L165.932,186.801L182.922,186.798L183.48,191.523Z" style="fill:#000000;fill-opacity:0.9;"/>
                <path id="keyboard-m" d="M202.884,191.52L185.384,191.523L184.826,186.798L201.778,186.795L202.884,191.52Z" style="fill:#000000;fill-opacity:0.9;"/>
                <path id="keyboard-comma" d="M222.132,191.517L204.826,191.52L203.719,186.795L220.542,186.792L222.132,191.517Z" style="fill:#000000;fill-opacity:0.9;"/>
                <path id="keyboard-dot" d="M241.282,191.514L224.127,191.517L222.537,186.792L239.186,186.789L241.282,191.514Z" style="fill:#000000;fill-opacity:0.9;"/>
                <path id="keyboard-question" d="M260.447,191.511L243.351,191.514L241.254,186.789L257.88,186.786L260.447,191.511Z" style="fill:#000000;fill-opacity:0.9;"/>
                <path id="keyboard-rshift" d="M260.032,186.786L283.949,186.783L286.885,191.508L262.599,191.511L260.032,186.786Z" style="fill:#000000;fill-opacity:0.9;"/>
                <path id="keyboard-capslock" d="M63.421,181.308L60.974,185.378L40.005,185.381L42.754,181.311L63.421,181.308Z" style="fill:#000000;fill-opacity:0.9;"/>
                <path id="keyboard-a" d="M78.297,185.375L62.954,185.377L65.401,181.307L80.311,181.305L78.297,185.375Z" style="fill:#000000;fill-opacity:0.9;"/>
                <path id="keyboard-s" d="M95.638,185.372L80.191,185.375L82.205,181.305L97.211,181.302L95.638,185.372Z" style="fill:#000000;fill-opacity:0.9;"/>
                <path id="keyboard-d" d="M113.037,185.369L97.458,185.372L99.03,181.302L114.179,181.3L113.037,185.369Z" style="fill:#000000;fill-opacity:0.9;"/>
                <path id="keyboard-f" d="M130.344,185.367L114.8,185.369L115.942,181.3L131.149,181.297L130.344,185.367Z" style="fill:#000000;fill-opacity:0.9;"/>
                <path id="keyboard-g" d="M147.705,185.364L132.074,185.366L132.88,181.297L148.054,181.294L147.705,185.364Z" style="fill:#000000;fill-opacity:0.9;"/>
                <path id="keyboard-h" d="M164.987,185.361L149.408,185.364L149.758,181.294L164.866,181.292L164.987,185.361Z" style="fill:#000000;fill-opacity:0.9;"/>
                <path id="keyboard-j" d="M182.343,185.358L166.685,185.361L166.564,181.292L181.862,181.289L182.343,185.358Z" style="fill:#000000;fill-opacity:0.9;"/>
                <path id="keyboard-k" d="M199.802,185.356L184.052,185.358L183.571,181.289L198.849,181.286L199.802,185.356Z" style="fill:#000000;fill-opacity:0.9;"/>
                <path id="keyboard-l" d="M217.116,185.353L201.545,185.355L200.592,181.286L215.746,181.284L217.116,185.353Z" style="fill:#000000;fill-opacity:0.9;"/>
                <path id="keyboard-semicolon" d="M234.344,185.35L218.906,185.353L217.537,181.283L232.538,181.281L234.344,185.35Z" style="fill:#000000;fill-opacity:0.9;"/>
                <path id="keyboard-quotation" d="M251.582,185.348L236.2,185.35L234.395,181.281L249.371,181.278L251.582,185.348Z" style="fill:#000000;fill-opacity:0.9;"/>
                <path id="keyboard1" d="M268.434,185.345L253.514,185.347L251.303,181.278L266.223,181.276L268.434,185.345Z" style="fill:#000000;fill-opacity:0.9;"/>
                <path id="keyboard-return" d="M 269.955 185.462 L 269.955 185.462 L 267.564 180.95 L 279.847 180.977 L 283.763 185.46 L 283.755 185.46 Z" style="fill:#000000;fill-opacity:0.9;"/>
                <path id="keyboard-delete" d="M 264.955 180.07 L 264.955 180.062 L 263.264 176.95 L 277.847 176.977 L 279.763 180.06 L 279.755 180.06 Z"/>
            </g>
            <path id="Trackpad" d="M96.136,199.49L88.014,221.323L231.405,222L225.178,199.49L96.136,199.49Z" fill="#929292" stroke="#000" stroke-width="0.5" />
            <path id="BaseFront" d="M320.12,220.574L326.048,224.74L323.687,235.617L0,235.617L-5.255,221.437L0.628,220.574C0.628,220.574 -1.201,223.94 8.606,224.039C18.414,224.138 133.47,224.039 133.47,224.039L136.171,228.295L184.19,228.295L187.105,224.039L313.932,224.74C317.877,224.854 320.241,223.706 320.12,220.574Z" style="fill:#808080;"/>
            <path id="Shadow" d="M135.535,224.21L137.498,226.92L183.378,226.92L185.338,224.21L135.535,224.21Z" style="fill:#606066;"/>
        </g>
        <g id="CodeEditorWindow">
            <clipPath id="_clip3">
                <path id="CodeEditor" d="M68.863,30.416L71.588,144.464L252.946,144.464L254.313,30.416L68.863,30.416Z"/>
            </clipPath>
            <g clip-path="url(#_clip3)">
                <g opacity="0.786239">
                    <path d="M68.863,30.416L71.588,144.464L252.946,144.464L254.313,30.416L68.863,30.416Z" style="fill:#506062;"/>
                    <clipPath id="_clip4">
                        <path d="M68.863,30.416L71.588,144.464L252.946,144.464L254.313,30.416L68.863,30.416Z"/>
                    </clipPath>
                    <g clip-path="url(#_clip4)">
                        <g id="Code">
                        </g>
                        <g id="start_blink">
                                    <path d="M74,48L75,48L75,42L74,42Z" fill="#506062">
                                    <animate
                                        attributeType="XML"
                                        attributeName="fill"
                                        values="#fefefe;#506062"
                                        dur="0.4s"
                                        repeatCount="5"/>
                                    </path>
                        </g>
                        <g>
                            <path id="animated_text">
                                <animate attributeName="d" from="m74,48 h0" to="m74,48 h200" dur="5s" begin="2s" repeatCount="1"/>
                            </path>
                            <text font-size="7" font-family="sans-serif" fill='hsla(0, 0%, 100%, 1)'>
                                <textPath xlink:href="#animated_text">Welcome to my github profile.</textPath>
                            </text>
                        </g>
                        <g>
                            <path id="animated_text2">
                                <animate attributeName="d" from="m74,48 h200" to="m74,48 h200" dur="1s" begin="7s" repeatCount="indefinite"/>
                            </path>
                            <text font-size="7" font-family="sans-serif" fill='hsla(0, 0%, 100%, 1)'>
                                <textPath xlink:href="#animated_text2">Welcome to my github profile.</textPath>
                            </text>
                        </g>

                        <g id="AppBar">
                            <path d="M254.159,30.416L254.107,33.773L56.763,33.773L56.679,30.416"/>
                            <circle cx="71.395" cy="32.052" r="0.935" style="fill:#ff6059;"/>
                            <circle cx="73.93" cy="32.052" r="0.935" style="fill:#ffc02f;"/>
                            <circle cx="76.465" cy="32.052" r="0.935" style="fill:#28ca42;"/>
                        </g>
                    </g>
                </g>
            </g>
            <path id="CodeEditor1" d="M253.144,144.664L71.392,144.664L68.658,30.216L254.516,30.216L253.144,144.664ZM68.863,30.416L71.588,144.464L252.946,144.464L254.313,30.416L68.863,30.416Z" style="fill-opacity:0.786239;"/>
        </g>
    </g>
</svg>
